<?xml version="1.0" encoding="UTF-8"?>
<svg width="52px" height="52px" viewBox="0 0 52 52" version="1.1" xmlns="http://www.w3.org/2000/svg" xmlns:xlink="http://www.w3.org/1999/xlink">
    <title>automated</title>
    <defs>
        <polygon id="path-1" points="0 0 52.000868 0 52.000868 51.9963551 0 51.9963551"></polygon>
    </defs>
    <g id="Web-Version" stroke="none" stroke-width="1" fill="none" fill-rule="evenodd">
        <g id="Home-Page" transform="translate(-928.000000, -1247.000000)">
            <g id="Second-Section" transform="translate(-246.000000, 759.000000)">
                <g id="Power" transform="translate(376.000000, 454.000000)">
                    <g id="01" transform="translate(600.000000, 4.000000)">
                        <g id="automated" transform="translate(198.000000, 30.000000)">
                            <path d="M28.0619105,39.5028192 C26.6686064,39.5028192 25.3055133,39.2251654 24.0121933,38.6771228 C18.733894,36.4435923 16.2565892,30.330893 18.4886092,25.0525937 C20.1200051,21.1970903 23.8805595,18.7053993 28.0705423,18.7053993 C29.4631271,18.7053993 30.8247096,18.9838443 32.1166629,19.5282903 C37.3964008,21.7639788 39.8751443,27.8759588 37.6409664,33.1556247 C36.0074126,37.0118475 32.2468581,39.5028192 28.0619105,39.5028192" id="Fill-1" fill="#00B3DF"></path>
                            <g>
                                <mask id="mask-2" fill="white">
                                    <use xlink:href="#path-1"></use>
                                </mask>
                                <g id="Clip-4"></g>
                                <path d="M25.9938933,17.3456941 C22.5117119,17.3456941 19.3848699,19.4165886 18.0296892,22.6203969 C16.1731492,27.0089093 18.2318154,32.0901175 22.6210471,33.9473768 C23.6970635,34.4048582 24.8293299,34.6343182 25.9852616,34.6343182 C29.465285,34.6343182 32.5914078,32.5634237 33.950185,29.3581768 C35.8052864,24.9689451 33.7459009,19.8878088 29.3566692,18.0311969 C28.2826669,17.5751541 27.1505443,17.3456941 25.9938933,17.3456941 L25.9938933,17.3456941 Z M25.9852616,36.388788 C24.5926048,36.388788 23.2295837,36.110343 21.9355444,35.5629478 C16.6579644,33.3287699 14.1806596,27.2167899 16.4126796,21.9384907 C18.0433561,18.0822679 21.8039106,15.5912962 25.9938933,15.5912962 C27.3871974,15.5912962 28.7488519,15.86895 30.040014,16.4141872 C35.3203993,18.6490845 37.7992146,24.7618557 35.5650367,30.0415217 C33.9307636,33.8977444 30.1708565,36.388788 25.9852616,36.388788 L25.9852616,36.388788 Z M22.300954,49.9613829 C24.6495023,50.3246347 27.0563147,50.3361436 29.4221264,49.9951905 L29.2077719,45.2088995 C29.1905085,44.837088 29.4098981,44.4967823 29.7544478,44.3557975 L36.3223986,41.6958597 C36.6633517,41.5583995 37.060411,41.647594 37.3072064,41.9266864 L40.4390836,45.4606581 C42.3610808,44.0443361 44.034916,42.3827292 45.432536,40.5067678 L41.8964063,37.2720292 C41.6223491,37.0209899 41.5367512,36.6246499 41.6806132,36.2822582 L44.4420456,29.7566748 C44.5880656,29.414283 44.8944199,29.1812265 45.3044268,29.2243851 L49.9872091,29.5070741 C50.3331973,27.1563679 50.3317587,24.7819244 49.9843318,22.4298516 L45.3347098,22.6405376 C44.9577911,22.6938385 44.6218732,22.4392026 44.4816077,22.0946529 L41.8194401,15.5244004 C41.6806132,15.1806419 41.7734043,14.78423 42.0524967,14.5397364 L45.4462029,11.5329473 C44.0636884,9.66921417 42.4481174,8.03350246 40.6325781,6.65818108 L37.4395595,10.1511521 C37.1892395,10.4230514 36.7900222,10.5087213 36.451227,10.3662978 L29.924205,7.60702336 C29.581094,7.46100336 29.3667395,7.11710108 29.3896855,6.74521764 L29.673885,2.03085766 C27.4173365,1.67983421 25.0947554,1.66041283 22.7958395,1.97266545 L23.0015623,6.61646108 C23.0166678,6.98834453 22.7972781,7.32929763 22.4533759,7.47035439 L15.8854251,10.1281342 C15.542314,10.2634364 15.1466934,10.1727314 14.8999699,9.89579693 L11.7752858,6.36693233 C9.88062235,7.7371466 8.20383801,9.36638452 6.77679823,11.2250824 L10.2201368,14.3720652 C10.4956327,14.6216659 10.5812306,15.0195164 10.4380879,15.3618362 L7.67593615,21.8867003 C7.53207409,22.2283727 7.21701616,22.4420079 6.81420237,22.4197093 L2.05380653,22.1334238 C1.68911618,24.4035672 1.65818584,26.7298168 1.96101549,29.0647701 L6.74227133,28.8489051 C7.1227865,28.7992727 7.45510788,29.0496646 7.5953734,29.395581 L10.2546637,35.9614458 C10.3934906,36.3059954 10.3006996,36.7001775 10.0230458,36.9469009 L6.35384375,40.1981837 C7.76362009,42.1547797 9.4389658,43.8724928 11.3508208,45.3167961 L14.5352076,41.8295795 C14.7855996,41.5534363 15.1790623,41.4656085 15.5257699,41.6116285 L22.0556692,44.3752188 C22.3966223,44.5205915 22.6109768,44.8643499 22.5886782,45.2362333 L22.300954,49.9613829 Z M25.9665595,51.9963838 C24.375445,51.9963838 22.7771375,51.8474147 21.2140761,51.5546553 C20.7810513,51.4733733 20.4746251,51.0799105 20.5019589,50.6396926 L20.7997533,45.7483823 L15.4128382,43.4703264 L12.1168863,47.0798257 C11.8184444,47.4071839 11.321401,47.458183 10.9631125,47.2049857 C8.40747477,45.4010273 6.21998009,43.1617423 4.46061893,40.5492791 C4.21605341,40.1845168 4.27719479,39.6946664 4.60663893,39.4033458 L8.39596581,36.0456051 L6.20063064,30.6291982 L1.24666839,30.8529037 C0.830907016,30.9356244 0.414498259,30.5587058 0.342567225,30.1184879 C-0.1530376,27.0571031 -0.10987898,24.00435 0.465497362,21.0429493 C0.549728603,20.6092052 0.90075205,20.2768838 1.38053205,20.3351479 L6.30277271,20.6315757 L8.5785987,15.2489045 L5.00873341,11.9853935 C4.68000858,11.6854411 4.62821824,11.186959 4.88716996,10.8258652 C6.68256857,8.32985832 8.87998974,6.19206798 11.4228237,4.47363558 C11.7889527,4.22691213 12.2795223,4.28661489 12.5701237,4.61965558 L15.8012658,8.26943625 L21.2212692,6.07553971 L21.0090007,1.26335352 C20.988932,0.819539044 21.301832,0.432550081 21.7384533,0.358461115 C24.7437319,-0.145056123 27.8151871,-0.11772233 30.7600436,0.437585253 C31.1937158,0.519586632 31.500214,0.910172147 31.4728082,1.35261994 L31.1779629,6.23091074 L36.5620008,8.5096859 L39.8685985,4.89299351 C40.166393,4.56786523 40.6599119,4.5167942 41.0231636,4.76999144 C43.4673801,6.50000474 45.5936615,8.65210935 47.3407944,11.1646604 C47.5962215,11.53007 47.5357994,12.0263942 47.2019675,12.3213114 L43.680296,15.4410323 L45.8763505,20.8609638 L50.6835015,20.6430127 C51.1114192,20.5782748 51.5071118,20.9293702 51.5862359,21.3630424 C52.137875,24.4244272 52.1393856,27.5268846 51.5890413,30.5860396 C51.5107084,31.022661 51.1625621,31.331317 50.6727118,31.3053499 L45.8166477,31.0125906 L43.5378725,36.3951899 L47.1934077,39.7392637 C47.5170973,40.0356195 47.5724842,40.5276278 47.3199344,40.8880023 C45.5728015,43.3984673 43.3803436,45.5757478 40.8051406,47.3553216 C40.4441188,47.6070802 39.9441981,47.5488161 39.6507194,47.2164947 L36.4066298,43.5544857 L30.9873457,45.7505402 L31.2088933,50.6979567 C31.229034,51.1381747 30.9197305,51.5251636 30.4859864,51.6006912 C28.9934174,51.8646781 27.4727954,51.9963838 25.9665595,51.9963838 L25.9665595,51.9963838 Z" id="Fill-3" fill="#005794" mask="url(#mask-2)"></path>
                            </g>
                        </g>
                    </g>
                </g>
            </g>
        </g>
    </g>
</svg>