<?xml version="1.0" encoding="UTF-8"?>
<svg width="53px" height="54px" viewBox="0 0 53 54" version="1.1" xmlns="http://www.w3.org/2000/svg" xmlns:xlink="http://www.w3.org/1999/xlink">
    <title>time</title>
    <defs>
        <polygon id="path-1" points="0 0 50.9780686 0 50.9780686 51.251513 0 51.251513"></polygon>
        <polygon id="path-3" points="0 54 53 54 53 0 0 0"></polygon>
    </defs>
    <g id="Web-Version" stroke="none" stroke-width="1" fill="none" fill-rule="evenodd">
        <g id="Home-Page" transform="translate(-627.000000, -1247.000000)">
            <g id="Second-Section" transform="translate(-246.000000, 759.000000)">
                <g id="Power" transform="translate(376.000000, 454.000000)">
                    <g id="02" transform="translate(300.000000, 4.000000)">
                        <g id="time" transform="translate(197.000000, 30.000000)">
                            <path d="M52.9999698,29.2043113 C52.9999698,42.8987574 41.9581143,53.9999818 28.3362409,53.9999818 C14.7150926,53.9999818 3.67323712,42.8987574 3.67323712,29.2043113 C3.67323712,15.509926 14.7150926,4.40864092 28.3362409,4.40864092 C41.9581143,4.40864092 52.9999698,15.509926 52.9999698,29.2043113" id="Fill-1" fill="#00B3DF"></path>
                            <g id="Group-5" transform="translate(0.000000, 0.000006)">
                                <mask id="mask-2" fill="white">
                                    <use xlink:href="#path-1"></use>
                                </mask>
                                <g id="Clip-4"></g>
                                <path d="M25.4892971,1.66017216 C22.2708757,1.66017216 19.1491272,2.29368608 16.2108154,3.54315849 C13.3723184,4.75016986 10.8228733,6.47825539 8.6333534,8.67948695 C6.44383351,10.8807185 4.72486887,13.4437497 3.52425212,16.2974478 C2.28146184,19.2514973 1.6512755,22.3899698 1.6512755,25.6256958 C1.6512755,28.8614825 2.28146184,31.999955 3.52425212,34.9540652 C4.72486887,37.8077025 6.44383351,40.3707945 8.6333534,42.5720261 C10.8228733,44.7731969 13.3723184,46.5013431 16.2108154,47.7083545 C19.1491272,48.9578269 22.2708757,49.5913409 25.4892971,49.5913409 C28.707779,49.5913409 31.8294671,48.9578269 34.7677789,47.7083545 C37.606155,46.5014039 40.1556001,44.7731969 42.3449992,42.5720261 C44.5343982,40.3708553 46.2533629,37.8077633 47.4538588,34.9540652 C48.6966491,31.999955 49.326775,28.8614825 49.326775,25.6256958 C49.326775,22.3899698 48.6966491,19.2514973 47.4538588,16.2974478 C46.2533629,13.443689 44.5343982,10.8806578 42.3449992,8.67948695 C40.1556001,6.47825539 37.606155,4.75016986 34.7677789,3.54315849 C31.8294671,2.29368608 28.707779,1.66017216 25.4892971,1.66017216 M25.4892971,51.251513 C22.0486489,51.251513 18.7105344,50.5738979 15.5675782,49.2374381 C12.5321706,47.9467195 9.80635795,46.0991478 7.46572627,43.7459312 C5.12503417,41.3928361 3.28728273,38.6523675 2.00340646,35.6007609 C0.674093948,32.4409667 -1.81261649e-05,29.0848433 -1.81261649e-05,25.6256958 C-1.81261649e-05,22.1666089 0.674093948,18.8105463 2.00340646,15.6506914 C3.28728273,12.5990848 5.12503417,9.85867692 7.46572627,7.50552108 C9.80635795,5.15236525 12.5321706,3.30479349 15.5675782,2.01413568 C18.7105344,0.67761509 22.0486489,0 25.4892971,0 C28.9299453,0 32.2681203,0.67761509 35.4109556,2.01413568 C38.4463028,3.30479349 41.172055,5.15236525 43.5126263,7.50558183 C45.853258,9.85867692 47.690949,12.5991455 48.9747044,15.6506914 C50.3040774,18.8105463 50.9780686,22.1666089 50.9780686,25.6256958 C50.9780686,29.0849041 50.3040774,32.4409667 48.9747044,35.6007609 C47.690949,38.6523675 45.853258,41.3928361 43.5126263,43.7459312 C41.172055,46.0991478 38.4463028,47.9467195 35.411016,49.2374381 C32.2681203,50.5738979 28.9299453,51.251513 25.4892971,51.251513" id="Fill-3" fill="#005794" mask="url(#mask-2)"></path>
                            </g>
                            <mask id="mask-4" fill="white">
                                <use xlink:href="#path-3"></use>
                            </mask>
                            <g id="Clip-7"></g>
                            <polygon id="Fill-6" fill="#005794" mask="url(#mask-4)" points="24.6634872 9.09547154 26.3147808 9.09547154 26.3147808 5.55279901 24.6634872 5.55279901"></polygon>
                            <polygon id="Fill-8" fill="#005794" mask="url(#mask-4)" points="16.5529588 11.7248489 14.791156 8.65720553 16.2211896 7.82699796 17.9829924 10.8947021"></polygon>
                            <polygon id="Fill-9" fill="#005794" mask="url(#mask-4)" points="10.8367881 18.0795967 7.78561079 16.3082605 8.61137844 14.870538 11.6625558 16.6418743"></polygon>
                            <polygon id="Fill-10" fill="#005794" mask="url(#mask-4)" points="5.52352582 26.4558426 9.04719187 26.4558426 9.04719187 24.7956704 5.52352582 24.7956704"></polygon>
                            <polygon id="Fill-11" fill="#005794" mask="url(#mask-4)" points="8.6113724 36.3812848 7.78560475 34.9435623 10.8367821 33.1722261 11.6625497 34.6099485"></polygon>
                            <polygon id="Fill-12" fill="#005794" mask="url(#mask-4)" points="16.2212077 43.42443 14.7911742 42.5942832 16.552977 39.5266398 17.9830105 40.3567866"></polygon>
                            <polygon id="Fill-13" fill="#005794" mask="url(#mask-4)" points="24.6634872 45.698714 26.3147808 45.698714 26.3147808 42.1561022 24.6634872 42.1561022"></polygon>
                            <polygon id="Fill-14" fill="#005794" mask="url(#mask-4)" points="34.7568004 43.42443 32.9949372 40.3567866 34.4249708 39.5266398 36.186834 42.5942832"></polygon>
                            <polygon id="Fill-15" fill="#005794" mask="url(#mask-4)" points="42.366962 36.3812848 39.3156639 34.6099485 40.1413711 33.1722261 43.1926693 34.9435623"></polygon>
                            <polygon id="Fill-16" fill="#005794" mask="url(#mask-4)" points="41.9310761 26.4558426 45.4548026 26.4558426 45.4548026 24.7956704 41.9310761 24.7956704"></polygon>
                            <polygon id="Fill-17" fill="#005794" mask="url(#mask-4)" points="40.1413711 18.0795967 39.3156639 16.6418743 42.366962 14.870538 43.1926693 16.3082605"></polygon>
                            <polygon id="Fill-18" fill="#005794" mask="url(#mask-4)" points="34.4249647 11.7248489 32.9949312 10.8947021 34.7567944 7.82699796 36.186828 8.65720553"></polygon>
                            <path d="M25.4888863,28.8172962 C25.459401,28.8172962 25.4298554,28.8157169 25.4002493,28.8124974 C25.1777809,28.7883207 24.9745261,28.674423 24.8371298,28.4968642 L16.6163098,17.8700008 C16.3363814,17.5081403 16.4012126,16.986641 16.7611983,16.7051467 C17.1211235,16.4237132 17.6398943,16.4889538 17.9198227,16.8508142 L25.6163132,26.7998803 L32.0071156,21.4456581 C32.3575548,21.152197 32.8780174,21.1998821 33.1699695,21.5519625 C33.4618612,21.9041644 33.4145519,22.4276077 33.0642335,22.7210688 L26.0174452,28.6249155 C25.8683273,28.7498081 25.681084,28.8172962 25.4888863,28.8172962" id="Fill-19" fill="#005794" mask="url(#mask-4)"></path>
                        </g>
                    </g>
                </g>
            </g>
        </g>
    </g>
</svg>