<?xml version="1.0" encoding="UTF-8"?>
<svg width="47px" height="57px" viewBox="0 0 47 57" version="1.1" xmlns="http://www.w3.org/2000/svg" xmlns:xlink="http://www.w3.org/1999/xlink">
    <title>trusted</title>
    <defs>
        <polygon id="path-1" points="1.33166418e-15 0 47 0 47 57 1.33166418e-15 57"></polygon>
    </defs>
    <g id="Web-Version" stroke="none" stroke-width="1" fill="none" fill-rule="evenodd">
        <g id="Home-Page" transform="translate(-333.000000, -1247.000000)">
            <g id="Second-Section" transform="translate(-246.000000, 759.000000)">
                <g id="Power" transform="translate(376.000000, 454.000000)">
                    <g id="03" transform="translate(0.000000, 4.000000)">
                        <g id="trusted" transform="translate(203.000000, 30.000000)">
                            <g id="Group-3">
                                <mask id="mask-2" fill="white">
                                    <use xlink:href="#path-1"></use>
                                </mask>
                                <g id="Clip-2"></g>
                                <path d="M1.46344398,11.5334751 L1.46344398,33.5457551 C1.46344398,36.4514802 3.29234735,41.3405813 12.0053276,48.1304712 C17.222749,52.1963708 22.3527279,54.9431181 23.4953708,55.4591548 C24.6480271,54.9149657 29.7959443,51.9817829 35.0203804,47.9547196 C38.1263301,45.5607043 40.5989239,43.2854416 42.3695144,41.1920738 C44.4709728,38.7075651 45.5365614,36.5372192 45.5365614,34.7412403 L45.5365614,11.5365735 C42.5284424,11.3412701 37.9498386,10.0112201 33.0579304,7.89536249 C29.5065219,6.35927169 25.3581696,4.1898339 23.5090789,2.371846 C21.6492253,4.16531414 17.4044881,6.3421773 13.7535354,7.89696509 C8.81295281,10.0010169 4.30963636,11.3275946 1.46344398,11.5334751 L1.46344398,11.5334751 Z M23.5001365,57 L23.3111686,56.9496784 C22.4551101,56.7215218 16.6273581,53.5702786 11.1920533,49.3492475 C7.96680053,46.8444392 5.39043231,44.3715227 3.53454117,41.9991959 C1.18917541,39.0011612 1.33166418e-15,36.1569759 1.33166418e-15,33.5457551 L1.33166418e-15,10.1016066 L0.731721989,10.1016066 C3.2715175,10.1016066 8.0410169,8.74233588 13.1790279,6.55425452 C18.0599054,4.47557724 21.9723824,2.18225858 22.9146519,0.847454164 L23.5128808,0 L24.1111632,0.847454164 C25.0756012,2.21377635 28.904973,4.50778947 33.6400416,6.55585712 C38.6965538,8.74297692 43.5354503,10.1016066 46.2682834,10.1016066 L47,10.1016066 L47,34.7412403 C47,36.9038938 45.8045114,39.4074199 43.4467227,42.1822127 C41.5908851,44.3663943 39.019818,46.7257935 35.8047928,49.1949707 C30.5927261,53.1978881 24.6118828,56.7033056 23.6891045,56.949625 L23.5001365,57 Z" id="Fill-1" fill="#005794" mask="url(#mask-2)"></path>
                            </g>
                            <path d="M23.3389727,49.599457 C23.3348727,49.600557 23.3305727,49.601657 23.3259727,49.602957 C23.3303727,49.601757 23.3345727,49.600657 23.3389727,49.599457 M23.4996064,51.0128036 C23.1756461,51.0128036 22.8795838,50.7966665 22.7927303,50.4695761 C22.6902946,50.0838306 22.9173346,49.6884161 23.3007323,49.5802941 C23.8304208,49.3963158 28.1739525,47.0041702 32.5392779,43.6864705 C34.9736926,41.8363238 36.9100116,40.0777923 38.29442,38.4596484 C39.919148,36.560569 40.7430247,34.9072749 40.7430247,33.5456536 C40.7430247,33.1425467 41.0706262,32.8156699 41.4747466,32.8156699 C41.8788671,32.8156699 42.2064686,33.1425467 42.2064686,33.5456536 C42.2064686,35.2784367 41.2493666,37.2685971 39.3616685,39.4608452 C37.8892821,41.170818 35.85117,43.0143941 33.3038779,44.9405039 C29.0159817,48.1826678 24.4047677,50.7987499 23.6874499,50.9883373 C23.6246926,51.0048441 23.5615605,51.0128036 23.4996064,51.0128036" id="Fill-4" fill="#005794"></path>
                            <path d="M5.52528548,33.0803925 C5.12116504,33.0803925 4.79356349,32.7535692 4.79356349,32.3504089 L4.79356349,17.5371088 C4.79356349,16.5593099 5.13096417,15.6020778 5.74359727,14.8415913 C6.35821161,14.0787009 7.22428343,13.5458903 8.18234928,13.3413453 C10.7188784,12.7989725 14.0505829,11.6685528 17.0944179,10.3175621 C20.6734568,8.72895952 22.4419589,7.4704388 22.903589,6.82229449 C23.1376437,6.49365493 23.5945081,6.41662335 23.9238767,6.65012198 C24.2533524,6.8836206 24.3306209,7.33939965 24.0965127,7.66803922 C23.0637486,9.11796363 19.638872,10.7861086 17.6892733,11.6514584 C14.5583171,13.0411785 11.1188757,14.2065349 8.4887997,14.7689401 C7.19552861,15.0450679 6.25700747,16.2091955 6.25700747,17.5371088 L6.25700747,32.3504089 C6.25700747,32.7535692 5.92940593,33.0803925 5.52528548,33.0803925" id="Fill-6" fill="#005794"></path>
                            <path d="M32.4869838,23.4884604 L23.1124283,32.8406919 C22.0773616,33.8732996 20.3986581,33.8732996 19.3635914,32.8406919 L17.8627179,31.3438647 C16.8276513,30.311257 15.1494296,30.311257 14.113881,31.3438647 L13.9258769,31.5313688 C12.8908103,32.5645641 12.8908103,34.2386921 13.9258769,35.271834 L19.3635914,40.6960962 C20.3986581,41.7292916 22.0773616,41.7292916 23.1124283,40.6960962 L36.4237177,27.4164296 C37.4593198,26.3832877 37.4593198,24.7091063 36.4237177,23.676552 L36.2358207,23.4884604 C35.200754,22.4558526 33.5220504,22.4558526 32.4869838,23.4884604" id="Fill-8" fill="#00B3DF"></path>
                            <path d="M15.4902627,27.8196488 C14.9777628,27.8196488 14.4959989,28.0188518 14.1335917,28.3805583 L13.9441419,28.5689705 C13.5825379,28.9297155 13.3829676,29.4104951 13.3829676,29.9219911 C13.3829676,30.4334338 13.5825379,30.9142134 13.9449451,31.2757596 L19.3826595,36.700556 C19.7450667,37.0621023 20.2269912,37.2612519 20.7397053,37.2612519 C21.2523658,37.2612519 21.7342903,37.0621023 22.0966975,36.700556 L35.4085759,23.4208895 C36.1564156,22.6743456 36.1564156,21.4593087 35.4084153,20.712658 L35.220786,20.5259553 C34.4718754,19.7788238 33.2543735,19.7787703 32.5059984,20.5252608 L23.1314965,29.8775457 C22.4926788,30.5148458 21.6432601,30.8657615 20.7397053,30.8657615 C19.8360969,30.8657615 18.9866783,30.5148458 18.3478606,29.8774923 L16.8474691,28.3806652 C16.4848477,28.0189052 16.0028161,27.8196488 15.4902627,27.8196488 M20.7397053,38.7211658 C19.8360969,38.7211658 18.9866783,38.3701967 18.3478606,37.7328967 L12.9101462,32.3081537 C12.2713285,31.6708002 11.9195236,30.8233994 11.9195236,29.9219911 C11.9195236,29.0205294 12.2713285,28.1731286 12.9101462,27.5358286 L13.0994354,27.3475767 C13.7373427,26.7108642 14.5867078,26.3596814 15.4902627,26.3596814 C16.3937104,26.3596814 17.2432362,26.7108108 17.882268,27.3483245 L19.3826595,28.8451517 C19.7450667,29.2066979 20.2269912,29.4058475 20.7397053,29.4058475 C21.2523658,29.4058475 21.7342903,29.2066979 22.0966975,28.8451517 L31.4711994,19.4929202 L31.9886257,20.0091172 L31.4711994,19.4929202 C32.7901196,18.1771867 34.9359686,18.1771867 36.2548888,19.4929202 L36.4426252,19.6797832 C37.7616525,20.9963714 37.7616525,23.1372829 36.4434819,24.4530698 L23.1314965,37.7329501 C22.4926788,38.3701967 21.6432601,38.7211658 20.7397053,38.7211658" id="Fill-10" fill="#005794"></path>
                        </g>
                    </g>
                </g>
            </g>
        </g>
    </g>
</svg>